# xmcd
#
# Track frame offsets: 
#        150
#        15905
#        29399
#        48816
#        65380
#        83724
#        101589
#        123709
#        141176
#        154193
#        169021
#        189697
#        206655
#        222183
#        242683
#
# Disc length: 3419 seconds
#
# Revision: 0
# Processed by: cddbd v1.5.2PL0 Copyright (c) Steve Scherf et al.
# Submitted via: ExactAudioCopy v0.99pb4
#
DISCID=c90d590f
DTITLE=Gadjes Band - Roadhouse Blues Club, 26.01.2006. Moscow
DYEAR=2006
DGENRE=Blues
TTITLE0=All of Me
TTITLE1=Lusile
TTITLE2=Sometimes I'm Happy
TTITLE3=Caravan
TTITLE4=You Be So Nice
TTITLE5=Oh, Lady Be Good
TTITLE6=Smoke Rings
TTITLE7=Sing, Sing, Sing!
TTITLE8=Blue Moon
TTITLE9=Sweet Georgia Brown
TTITLE10=I't Don't Mean a Thing
TTITLE11=Georgia on My Mind
TTITLE12=Douce Ambiense
TTITLE13=Bei Mir Bist Du Shoen
TTITLE14=Vol Vistu Gaily Star
EXTD=
EXTT0=
EXTT1=
EXTT2=
EXTT3=
EXTT4=
EXTT5=
EXTT6=
EXTT7=
EXTT8=
EXTT9=
EXTT10=
EXTT11=
EXTT12=
EXTT13=
EXTT14=
PLAYORDER=
